# xmcd
#
# Track frame offsets:
#	182
#	13752
#	26697
#	39052
#	52180
#	62947
#	74757
#	88495
#	102182
#	118355
#	129395
#	140995
#	151937
#	165770
#
# Disc length: 2386 seconds
#
# Revision: 1
# Processed by: cddbd v1.5.1PL2 Copyright (c) Steve Scherf et al.
# Submitted via: audiograbber 1.83.01
#
DISCID=cb09500e
DTITLE=Billie Jo Spears - The Queen of Country Music
DYEAR=1994
DGENRE=
TTITLE0=Cry
TTITLE1=Country Roads
TTITLE2=Make the World go away
TTITLE3=Slow Hand
TTITLE4=I Believe
TTITLE5=Love Letters in the Sand
TTITLE6=You Light up my Life
TTITLE7=Heartaches by the Number
TTITLE8=Always on my Mind
TTITLE9=Raindrops Keep Falling
TTITLE10=Misty
TTITLE11=Paper Roses
TTITLE12=If you love me Let me know
TTITLE13=Amazing Grace
EXTD=
EXTT0=
EXTT1=
EXTT2=
EXTT3=
EXTT4=
EXTT5=
EXTT6=
EXTT7=
EXTT8=
EXTT9=
EXTT10=
EXTT11=
EXTT12=
EXTT13=
PLAYORDER=
